<svg width="16" height="27" viewBox="0 0 16 27" fill="none" xmlns="http://www.w3.org/2000/svg">
<path d="M10.8856 18.854L10.0028 19.0548L10.6429 19.6951L14.3753 23.4285C14.9162 23.9916 14.9157 24.8845 14.3725 25.448C13.8151 26.0253 12.894 26.0417 12.316 25.4869L8.64945 21.8182L8.29677 21.4653L7.94312 21.8172L4.25485 25.4871L4.25481 25.4871L4.24945 25.4926C3.97841 25.7707 3.60947 25.913 3.23292 25.913C2.85715 25.913 2.48755 25.7705 2.21797 25.4931L2.218 25.4931L2.21294 25.488L2.18437 25.4595C2.1838 25.4589 2.18324 25.4583 2.18267 25.4578C1.63219 24.8935 1.64169 23.987 2.20774 23.4306L2.20776 23.4306L2.21078 23.4276L5.94648 19.6919L6.58776 19.0506L5.70318 18.8506C4.40349 18.5568 3.16061 18.0445 2.02943 17.3404L2.02788 17.3388L1.9805 17.309C1.30577 16.8836 1.10018 15.9959 1.51614 15.3183C1.5263 15.3035 1.5355 15.2883 1.54378 15.273C1.97958 14.615 2.86265 14.4222 3.53335 14.845L3.53486 14.846C6.44435 16.6658 10.1404 16.667 13.0509 14.8496C13.7183 14.4588 14.5722 14.6543 15.0011 15.2961L15.0012 15.2963C15.448 15.964 15.2705 16.8665 14.6052 17.3159C13.4612 18.0341 12.2028 18.5544 10.8856 18.854ZM8.2952 13.3949L8.18992 13.395C4.82884 13.3364 2.12192 10.5958 2.11681 7.2198C2.11703 3.81207 4.89038 1.03906 8.29579 1.03906C11.7014 1.03906 14.4747 3.81234 14.4748 7.21794C14.4694 10.6282 11.7065 13.3909 8.2952 13.3949ZM11.5601 7.21877C11.5589 5.58711 10.3609 4.23459 8.79579 3.99235V3.95159L8.29473 3.95266C6.49394 3.95647 5.03295 5.41613 5.0304 7.2195L5.0304 7.22126C5.03422 9.02326 6.494 10.482 8.29508 10.4845L8.2965 10.4845C10.0983 10.482 11.5601 9.02228 11.5601 7.21912V7.21877Z" stroke="#0F0F0F"/>
</svg>
