<svg width="40" height="23" viewBox="0 0 40 23" fill="none" xmlns="http://www.w3.org/2000/svg">
<path d="M38.2438 20.9483L38.2406 20.9423C37.8994 20.3049 36.9804 19.2182 36.0818 18.235C35.6447 17.7567 35.231 17.3226 34.9264 17.008C34.7742 16.8508 34.6496 16.7237 34.5632 16.6361C34.52 16.5924 34.4864 16.5585 34.4637 16.5357L34.4381 16.51L34.4356 16.5075C33.7225 15.8291 33.1415 15.2666 32.7407 14.7594C32.3312 14.2414 32.0438 13.7012 32.0285 13.0627C32.0136 12.4419 32.2605 11.8531 32.6225 11.2445C32.9859 10.6336 33.5249 9.90827 34.2035 9.00786C34.5945 8.48868 35.0394 7.89553 35.5462 7.21034C37.044 5.16258 37.8143 3.83445 38.1906 2.98635C38.4135 2.48412 38.4793 2.19169 38.4975 2.04109C38.3584 2.01154 38.1475 1.99137 37.8566 1.99137H31.2364H31.2282L31.2201 1.99119C31.1918 1.99053 31.1636 1.99521 31.1368 2.00509C31.1223 2.02027 31.1033 2.04307 31.0815 2.07355C31.0486 2.11941 31.02 2.16726 30.999 2.20481C30.8376 2.64622 29.9239 5.01591 28.7562 7.05519L28.7552 7.0569C27.3664 9.46658 26.3823 10.7333 25.665 11.4022C25.302 11.7407 24.9857 11.9468 24.6974 12.0625C24.3908 12.1857 24.1604 12.1876 24.0393 12.1876L38.2438 20.9483ZM38.2438 20.9483L38.2513 20.9712L38.2901 21.0368C38.4245 21.2643 38.4829 21.4263 38.5026 21.5311C38.5119 21.5809 38.5112 21.6109 38.5097 21.6253C38.5089 21.6324 38.5079 21.6364 38.5075 21.6379L38.5072 21.6386C38.4822 21.6812 38.3764 21.7875 38.1321 21.8971C37.9163 21.9939 37.7149 22.0386 37.6418 22.0483H32.1021C31.8427 22.0483 31.179 21.9818 30.3258 21.3868C29.6628 20.918 28.9759 20.1222 28.2363 19.2495L28.2351 19.2481L28.2234 19.2344L28.2233 19.2343L28.2053 19.2132L28.2052 19.2131L28.2011 19.2083C27.6805 18.5974 27.1529 17.9782 26.6315 17.515C26.1156 17.0567 25.4814 16.635 24.7434 16.6348M38.2438 20.9483L22.7219 7.76608L22.7227 7.73691M24.7434 16.6348C24.7437 16.6348 24.7441 16.6348 24.7444 16.6348L24.7429 17.3338V16.6348C24.7431 16.6348 24.7432 16.6348 24.7434 16.6348ZM24.7434 16.6348C24.5485 16.6344 24.355 16.6666 24.1708 16.7297C23.0093 17.1064 22.0685 18.5661 22.0685 21.3989C22.0685 21.6355 21.9799 21.7989 21.8756 21.9047C21.821 21.96 21.7627 21.9988 21.7114 22.0223C21.6861 22.0339 21.6649 22.0408 21.6491 22.0446C21.6342 22.0481 21.6267 22.0483 21.6267 22.0483H19.0743C18.3198 22.0483 14.0091 21.7724 10.1715 17.6816L10.1713 17.6814C7.77995 15.1344 5.48126 11.2678 3.7614 7.98312C2.18417 4.97085 1.12749 2.5159 0.94279 2.08681C0.936626 2.07249 0.931434 2.06042 0.927225 2.05067C0.922999 2.04003 0.919741 2.03077 0.917233 2.02282C0.93177 2.01507 0.951918 2.00601 0.978821 1.99713C1.03911 1.97725 1.11758 1.96377 1.20649 1.96377H6.83417C7.05101 1.96377 7.12414 2.02268 7.15922 2.05575C7.22065 2.11368 7.27893 2.21132 7.36032 2.4077L7.36032 2.4077L7.36127 2.40998C7.38154 2.4584 7.40791 2.52294 7.44029 2.60218C7.71801 3.28192 8.43775 5.04353 9.54245 6.9945C10.5258 8.73914 11.3421 10.0082 12.052 10.8481C12.7297 11.6499 13.4535 12.2364 14.2723 12.2369M14.2723 12.2369C14.272 12.2369 14.2717 12.2369 14.2713 12.2369L14.2734 11.5378V12.2369C14.273 12.2369 14.2727 12.2369 14.2723 12.2369ZM14.2723 12.2369C14.5748 12.2376 14.8718 12.1583 15.1337 12.0075C15.7066 11.6857 15.9892 11.024 16.1488 10.4654C16.3221 9.8592 16.4132 9.14208 16.4601 8.45276C16.5531 7.08856 16.4811 5.7054 16.4505 5.21111C16.4502 5.06831 16.4449 4.55148 16.3627 3.94724C16.2797 3.3368 16.1025 2.50364 15.6732 1.90881C15.4443 1.59107 15.1626 1.35055 14.8719 1.16848C15.1531 1.09039 15.5047 1.0297 15.9221 0.987294C16.5744 0.921021 17.3196 0.905117 18.0856 0.905117H18.9367C20.5331 0.927884 20.923 1.02775 21.4582 1.16485L21.4827 1.17111L21.4827 1.17117L21.492 1.17341C21.7334 1.23172 21.8385 1.29729 21.8917 1.34649C21.9383 1.38953 21.9983 1.46832 22.0479 1.66573C22.163 2.12381 22.1536 2.88604 22.0983 4.29645C22.0983 4.29662 22.0983 4.29678 22.0983 4.29695L22.7968 4.32437C22.7656 5.10505 22.7324 5.98431 22.7324 7.01931C22.7324 7.12624 22.7302 7.23919 22.7278 7.35568C22.7253 7.47972 22.7227 7.60779 22.7227 7.73691M22.7227 7.73691L22.0239 7.71841L22.0236 7.72746C22.0236 7.73061 22.0236 7.73376 22.0236 7.73691H22.7227ZM0.908963 1.98438C0.908991 1.98439 0.909026 1.98496 0.908987 1.98606C0.908916 1.98493 0.908936 1.98438 0.908963 1.98438Z" stroke="#0F0F0F" stroke-width="1.39812"/>
</svg>
