<svg width="28" height="27" viewBox="0 0 28 27" fill="none" xmlns="http://www.w3.org/2000/svg">
<path d="M13.9527 7.55183C10.6425 7.55183 7.91956 10.1578 7.91956 13.421C7.91956 16.6813 10.6424 19.2891 13.9527 19.2891C17.2645 19.2891 19.9876 16.6814 19.9876 13.421C19.9876 10.1576 17.2645 7.55183 13.9527 7.55183ZM9.31769 13.421C9.31769 10.9711 11.3728 8.94995 13.9527 8.94995C16.5344 8.94995 18.5895 10.9712 18.5895 13.421C18.5895 15.8679 16.5344 17.8909 13.9527 17.8909C11.3729 17.8909 9.31769 15.868 9.31769 13.421ZM4.05637 0.895107H23.8006C25.2902 0.895107 26.5108 2.11599 26.5108 3.60585V23.3501C26.5108 24.8391 25.2905 26.0592 23.8006 26.0592H4.05637C2.56603 26.0592 1.34457 24.8386 1.34457 23.3501V3.60585C1.34457 2.11641 2.56637 0.895107 4.05637 0.895107Z" stroke="#0F0F0F" stroke-width="1.39812"/>
</svg>
